<?xml version="1.0" encoding="UTF-8" standalone="no"?>
<!-- Created with Inkscape (http://www.inkscape.org/) -->

<svg
   xmlns:dc="http://purl.org/dc/elements/1.1/"
   xmlns:cc="http://creativecommons.org/ns#"
   xmlns:rdf="http://www.w3.org/1999/02/22-rdf-syntax-ns#"
   xmlns:svg="http://www.w3.org/2000/svg"
   xmlns="http://www.w3.org/2000/svg"
   xmlns:sodipodi="http://sodipodi.sourceforge.net/DTD/sodipodi-0.dtd"
   xmlns:inkscape="http://www.inkscape.org/namespaces/inkscape"
   width="48px"
   height="48px"
   id="svg2859"
   version="1.1"
   inkscape:version="0.47pre4 r22446"
   sodipodi:docname="weather-clear.svg"
   inkscape:export-filename="/home/piotr/Pulpit/humanity_weather_icons_0.8/light-panel/scalable/weather-clear.png"
   inkscape:export-xdpi="30"
   inkscape:export-ydpi="30">
  <defs
     id="defs2861">
    <inkscape:perspective
       sodipodi:type="inkscape:persp3d"
       inkscape:vp_x="0 : 24 : 1"
       inkscape:vp_y="0 : 1000 : 0"
       inkscape:vp_z="48 : 24 : 1"
       inkscape:persp3d-origin="24 : 16 : 1"
       id="perspective2867" />
    <inkscape:perspective
       id="perspective2877"
       inkscape:persp3d-origin="0.5 : 0.33333333 : 1"
       inkscape:vp_z="1 : 0.5 : 1"
       inkscape:vp_y="0 : 1000 : 0"
       inkscape:vp_x="0 : 0.5 : 1"
       sodipodi:type="inkscape:persp3d" />
  </defs>
  <sodipodi:namedview
     id="base"
     pagecolor="#ffffff"
     bordercolor="#666666"
     borderopacity="1.0"
     inkscape:pageopacity="0.0"
     inkscape:pageshadow="2"
     inkscape:zoom="9.899495"
     inkscape:cx="-18.201071"
     inkscape:cy="25.652685"
     inkscape:current-layer="layer1"
     showgrid="true"
     inkscape:grid-bbox="true"
     inkscape:document-units="px"
     inkscape:window-width="1280"
     inkscape:window-height="724"
     inkscape:window-x="0"
     inkscape:window-y="25"
     inkscape:window-maximized="1">
    <inkscape:grid
       type="xygrid"
       id="grid2815" />
  </sodipodi:namedview>
  <metadata
     id="metadata2864">
    <rdf:RDF>
      <cc:Work
         rdf:about="">
        <dc:format>image/svg+xml</dc:format>
        <dc:type
           rdf:resource="http://purl.org/dc/dcmitype/StillImage" />
        <dc:title />
      </cc:Work>
    </rdf:RDF>
  </metadata>
  <g
     id="layer1"
     inkscape:label="Layer 1"
     inkscape:groupmode="layer">
    <path
       transform="matrix(2.0401889,-0.72911667,0.72911667,2.0401889,105.77312,-14.376024)"
       d="m -36.861878,13.657458 c -0.303431,0.142762 -2.791032,-1.289287 -3.12063,-1.227512 -0.319211,0.05983 -2.017281,2.278334 -2.34091,2.251139 -0.334159,-0.02808 -1.77246,-2.512071 -2.088788,-2.623371 -0.306359,-0.107793 -2.886184,0.964454 -3.152857,0.779089 -0.275351,-0.191398 -0.27896,-3.0617484 -0.497258,-3.3163013 -0.211418,-0.2465305 -2.981736,-0.6078497 -3.119999,-0.9017175 -0.142761,-0.3034308 1.289288,-2.7910316 1.227513,-3.1206299 -0.05983,-0.3192106 -2.278335,-2.0172812 -2.25114,-2.3409095 0.02808,-0.3341597 2.512072,-1.7724606 2.623372,-2.0887886 0.107793,-0.30635864 -0.964455,-2.886184 -0.779089,-3.1528567 0.191398,-0.2753508 3.061748,-0.2789603 3.316301,-0.4972582 0.24653,-0.2114181 0.60785,-2.981736 0.901717,-3.1199985 0.303431,-0.1427618 2.791032,1.2892872 3.12063,1.2275122 0.319211,-0.059828 2.017282,-2.2783343 2.34091,-2.2511392 0.33416,0.02808 1.772461,2.5120713 2.088788,2.6233716 0.306359,0.1077927 2.886184,-0.9644547 3.152857,-0.7790889 0.275351,0.1913979 0.278961,3.0617479 0.497258,3.3163008 0.211418,0.2465305 2.981736,0.60784966 3.119999,0.90171754 0.142762,0.30343079 -1.289287,2.79103156 -1.227512,3.12062986 0.05983,0.3192106 2.278334,2.0172812 2.251139,2.3409095 -0.02808,0.3341597 -2.512071,1.7724607 -2.623372,2.0887886 -0.107792,0.3063586 0.964455,2.886184 0.779089,3.1528572 -0.191398,0.27535 -3.061748,0.27896 -3.316301,0.497258 -0.24653,0.211418 -0.607849,2.981736 -0.901717,3.119998 z"
       inkscape:randomized="0"
       inkscape:rounded="0.1"
       inkscape:flatsided="false"
       sodipodi:arg2="1.3928311"
       sodipodi:arg1="1.1237218"
       sodipodi:r2="8.5876799"
       sodipodi:r1="10.7346"
       sodipodi:cy="3.9779005"
       sodipodi:cx="-41.502762"
       sodipodi:sides="12"
       id="path2486"
       style="fill:none;stroke:#606060;stroke-width:1.38468360999999995;stroke-opacity:1;stroke-linecap:round;stroke-linejoin:round"
       sodipodi:type="star" />
    <path
       sodipodi:type="arc"
       style="fill:#606060;stroke:none;fill-opacity:1"
       id="path2859"
       sodipodi:cx="8"
       sodipodi:cy="8"
       sodipodi:rx="3"
       sodipodi:ry="3"
       d="M 11,8 A 3,3 0 1 1 5,8 3,3 0 1 1 11,8 z"
       transform="matrix(5,0,0,5,-16,-16)" />
  </g>
</svg>
